<?xml version="1.0" encoding="UTF-8" standalone="no"?>
<!-- Created with Inkscape (http://www.inkscape.org/) -->

<svg
   xmlns:dc="http://purl.org/dc/elements/1.1/"
   xmlns:cc="http://creativecommons.org/ns#"
   xmlns:rdf="http://www.w3.org/1999/02/22-rdf-syntax-ns#"
   xmlns:svg="http://www.w3.org/2000/svg"
   xmlns="http://www.w3.org/2000/svg"
   xmlns:sodipodi="http://sodipodi.sourceforge.net/DTD/sodipodi-0.dtd"
   xmlns:inkscape="http://www.inkscape.org/namespaces/inkscape"
   width="221.02939"
   height="216.35606"
   id="svg2"
   version="1.1"
   inkscape:version="0.48.2 r9819"
   sodipodi:docname="icon.svg"
   inkscape:export-filename="E:\Informatik\Projekte\dota2ticker\client\data\ui\favicon.png"
   inkscape:export-xdpi="6.655695"
   inkscape:export-ydpi="6.655695">
  <defs
     id="defs4" />
  <sodipodi:namedview
     id="base"
     pagecolor="#ffffff"
     bordercolor="#666666"
     borderopacity="1.0"
     inkscape:pageopacity="0.0"
     inkscape:pageshadow="2"
     inkscape:zoom="0.98994949"
     inkscape:cx="424.81455"
     inkscape:cy="-66.928072"
     inkscape:document-units="px"
     inkscape:current-layer="layer1"
     showgrid="false"
     fit-margin-top="5"
     fit-margin-bottom="5"
     fit-margin-right="5"
     fit-margin-left="5"
     inkscape:window-width="1680"
     inkscape:window-height="988"
     inkscape:window-x="-8"
     inkscape:window-y="-8"
     inkscape:window-maximized="1" />
  <metadata
     id="metadata7">
    <rdf:RDF>
      <cc:Work
         rdf:about="">
        <dc:format>image/svg+xml</dc:format>
        <dc:type
           rdf:resource="http://purl.org/dc/dcmitype/StillImage" />
        <dc:title></dc:title>
      </cc:Work>
    </rdf:RDF>
  </metadata>
  <g
     inkscape:label="Ebene 1"
     inkscape:groupmode="layer"
     id="layer1"
     transform="translate(-60.558575,-22.641008)">
    <path
       style="fill:#000000"
       d="m 161.80804,27.642857 c -6.31963,0.02378 -11.62174,0.2869 -12.46875,0.90625 -1.02419,0.74891 -2.20879,2.73785 -3.9375,2.71875 -1.72871,-0.01913 -5.16511,1.9985 -7.21875,2.5 -2.05364,0.50151 -7.75,0.20044 -7.75,-0.40625 0,-0.79041 -2.01836,-3.27 -25.84375,-2.96875 l -33.250004,0.4375 -3.46875,3.15625 c -2.97645,2.72773 -3.08835,3.8732 -0.28125,2.9375 0.90968,-0.30323 2.38155,8.96601 2.46875,15.46875 0.03479,2.59528 -0.74624,9.63899 -1.75,15.65625 -1.58898,9.52539 -1.67539,11.9546 -0.59375,18.78125 0.68327,4.31245 1.60983,13.243753 2.03125,19.843753 0.43907,6.87622 1.46479,13.84288 2.40625,16.3125 l 1.625,4.3125 -3.0625,1.6875 -3.0625,1.6875 0.65625,12.90625 c 0.56142,10.81699 1.00765,13.33084 2.75,15.6875 2.92029,3.9499 1.99112,14.57031 -1.75,19.96875 -2.51542,3.62974 -2.57609,4.01804 -2.28125,18.0625 0.16594,7.90439 -0.09487,16.46755 -0.5625,19.03125 -0.80627,4.42025 -0.6914,4.75634 1.96875,6.5 2.36053,1.54726 5.10427,1.8826 17.34375,2.03125 7.99977,0.0971 16.742144,0.40539 19.406254,0.6875 2.6641,0.28211 5.8141,0.16145 7,-0.28125 1.18589,-0.44272 2.97441,-0.51308 3.96875,-0.15625 0.99435,0.35683 5.04435,0.33938 9,-0.0312 3.95566,-0.37063 7.6708,-0.27441 8.28125,0.21875 0.61045,0.49315 3.31045,0.86325 6,0.84375 7.34099,-0.0532 8.56195,0.38356 12.71875,4.375 4.48285,4.30452 5.64991,4.46293 9.3125,1.3125 2.41436,-2.07675 3.00957,-2.2028 5.28125,-1.09375 1.41466,0.69065 4.46421,1.66675 6.78125,2.1875 3.59235,0.80736 4.80826,0.63394 8.125,-1.25 3.30905,-1.87957 6.10496,-2.31117 18.75,-2.9375 7.54831,-0.38186 24.21875,-2.19646 24.90625,-1.71875 0.6875,0.47771 2.51468,0.85786 12.875,1.6875 9.32319,0.74658 17.67352,-0.88002 18.375,-3.5625 0.3511,-1.34266 1.28893,-1.68365 3.9375,-1.4375 3.70769,0.43032 8.01933,2.6484 11.875,4.09375 1.7365,1.1378 2.89858,1.35143 3.59375,0.65625 1.52851,-1.5285 -0.0395,-87.0395 -1.625,-88.625 -0.7075,-0.7075 -1.48512,-6.28394 -1.90625,-13.6875 -0.52635,-9.25312 -1.20858,-13.43384 -2.625,-16.1875 -1.28461,-2.4974 -1.56671,-3.92819 -0.84375,-4.375 0.60129,-0.37161 0.85756,-2.08802 0.5625,-3.90625 -0.44053,-2.714663 -0.13018,-3.413123 1.84375,-4.312503 3.41995,-1.55823 3.8761,-5.82766 2.875,-26.59375 -0.47981,-9.95274 -0.77952,-20.92431 -0.65625,-24.40625 0.12418,-3.50799 0.0584,-6.62989 -0.96875,-8.5 -1.02718,-1.87011 -1.72698,-3.42434 -5.25,-5.1875 -3.52302,-1.76316 -20.91094,-3.8317 -50,-3.875 l -16.71875,-0.03125 c 0,0 0.005,5.40716 -0.65625,5.71875 -0.6611,0.31158 -1.4966,2.09634 -3.28125,1.84375 -2.09676,-0.29676 -5.16776,-2.70086 -5.6875,-3.09375 -0.51974,-0.3929 -4.14473,-0.40084 -5,-1.25 -0.85526,-0.84916 1.02232,-2.70408 0.21875,-3.375 -0.50223,-0.41933 -13.90478,-1.00838 -24.4375,-0.96875 z m -55.46875,35.09375 c 0.0886,-0.01183 0.17445,-0.0072 0.28125,0 3.20386,0.21716 14.26196,6.84006 19.5625,11.875 2.2845,2.17003 5.73125,4.76324 7.65625,5.75 7.40888,3.79781 31.46927,18.45811 41.84375,25.500003 4.20829,2.85646 14.49918,9.80379 22.875,15.40625 4.15916,2.79398 11.09474,7.88817 15.03125,11.5625 0.59276,-0.36636 2.68903,0.27682 4.65625,1.4375 1.03909,1.42272 3.18475,1.31106 6.375,3.5625 2.49766,3.05564 2.07629,1.04668 1.5625,3.09375 -0.58807,2.34309 -0.44416,2.50413 2.0625,1.875 2.22627,-0.55876 3.89961,0.18231 9.40625,4.1875 3.68302,2.67881 7.70492,5.40284 8.9375,6.0625 1.23259,0.65967 2.25,1.68532 2.25,2.28125 -1.06618,3.40703 1.27766,-3.00295 -3.78125,11.65625 -2.36397,11.98137 -5.32841,20.8662 -8.09375,24.28125 -1.48184,1.83 -2.98217,2.24324 -9.21875,2.46875 -14.05884,0.50834 -14.16528,0.42841 -26.34375,-13.0625 -16.31094,-18.06872 -20.67898,-22.66914 -25.34375,-26.8125 -2.34219,-2.08039 -5.01148,-4.93048 -5.9375,-6.34375 -0.92601,-1.41328 -3.5154,-3.77103 -5.78125,-5.21875 -3.72597,-2.38064 -14.61373,-13.28509 -29.5,-29.5625 -3.025,-3.30769 -10.477,-10.96757 -16.53125,-17.031253 -14.53939,-14.56201 -26.730334,-27.61342 -26.250004,-28.09375 0.21241,-0.21241 1.27715,-0.54519 2.34375,-0.75 1.92617,-0.36986 4.10326,-1.11806 7.937504,-2.6875 1.1,-0.45025 2.77434,-1.06234 3.75,-1.375 0.07,-0.02242 0.16138,-0.05067 0.25,-0.0625 z m 111.8125,1.34375 c 1.1615,-0.12177 3.70472,0.73789 6.78125,2.3125 5.9397,3.04 9.25378,5.78125 6.96875,5.78125 -0.64981,0 -0.9568,0.41994 -0.65625,0.90625 0.59575,0.96393 -0.97347,19.47247 -2,23.5625 -0.34913,1.39105 -0.92837,2.5152 -1.28125,2.5 -1.43745,-0.06174 -24.96321,-16.90249 -35.9375,-25.71875 l -2.3125,-1.84375 7.3125,-2.15625 c 4.01986,-1.18722 10.0125,-2.67938 13.3125,-3.3125 3.3,-0.6331 6.63348,-1.48377 7.40625,-1.90625 0.1065,-0.05823 0.24032,-0.1076 0.40625,-0.125 z M 106.43304,148.48661 c 0.64742,-0.12686 8.83509,7.28297 18.59375,16.875 10.07345,9.90146 19.63088,18.84883 21.25,19.875 2.08706,1.32275 2.52363,2.00372 1.5,2.34375 -0.79412,0.26379 -4.8125,1.64436 -8.9375,3.09375 -4.125,1.44939 -11.1,3.50588 -15.5,4.5625 -9.33852,2.24257 -12.5026,2.4167 -12.5625,0.6875 -0.0238,-0.6875 -2.61133,-2.93494 -5.75,-5 -11.163714,-7.34505 -10.574414,-6.4225 -8.750004,-13.8125 0.8753,-3.54553 1.71963,-6.88749 1.875,-7.4375 0.15537,-0.55 1.45112,-3.47499 2.875004,-6.5 2.22165,-4.71982 4.27887,-10.31742 5.375,-14.65625 0.005,-0.02 0.0104,-0.0272 0.0312,-0.0312 z"
       id="path3854"
       inkscape:connector-curvature="0" />
  </g>
</svg>
